<svg xmlns="http://www.w3.org/2000/svg"
     width="800" height="400" viewBox="0 0 800 400">
  <defs>
    <filter id="glow">
      <feGaussianBlur stdDeviation="3" result="blur"/>
      <feMerge><feMergeNode in="blur"/><feMergeNode in="SourceGraphic"/></feMerge>
    </filter>
    <linearGradient id="courtGrad" x1="0" y1="0" x2="0" y2="1">
      <stop offset="0%" stop-color="#0d9469" stop-opacity="1"/>
      <stop offset="100%" stop-color="#0a7a57" stop-opacity="1"/>
    </linearGradient>
    <linearGradient id="glassL" x1="0" y1="0" x2="1" y2="0">
      <stop offset="0%" stop-color="#7dd3fc" stop-opacity="0.8"/>
      <stop offset="100%" stop-color="#7dd3fc" stop-opacity="0.3"/>
    </linearGradient>
    <linearGradient id="glassR" x1="0" y1="0" x2="1" y2="0">
      <stop offset="0%" stop-color="#7dd3fc" stop-opacity="0.3"/>
      <stop offset="100%" stop-color="#7dd3fc" stop-opacity="0.8"/>
    </linearGradient>
  </defs>
  <rect width="800" height="400" fill="#0f172a" rx="12"/>
  <rect x="40" y="40" width="724" height="324" fill="#000000" opacity="0.4" rx="4"/>
  <rect x="36" y="36" width="728" height="328" fill="url(#courtGrad)" rx="4"/>
  <rect x="288.9" y="36" width="126.1" height="328" fill="#0a7a57" opacity="0.6"/>
  <rect x="415.0" y="36" width="126.1" height="328" fill="#0a7a57" opacity="0.6"/>
  <rect x="36" y="36" width="9" height="328" fill="url(#glassL)" rx="4 0 0 4"/>
  <rect x="755" y="36" width="9" height="328" fill="url(#glassR)" rx="0 4 4 0"/>
  <rect x="36" y="36" width="728" height="9" fill="#6b7280" opacity="0.45" rx="4 4 0 0"/>
  <rect x="36" y="355" width="728" height="9" fill="#6b7280" opacity="0.45" rx="0 0 4 4"/>
  <rect x="36" y="36" width="728" height="328" fill="none" stroke="#ffffff" stroke-width="2.5" rx="4"/>
  <line x1="288.9" y1="36" x2="288.9" y2="364" stroke="#ffffff" stroke-width="1.8"/>
  <line x1="541.1" y1="36" x2="541.1" y2="364" stroke="#ffffff" stroke-width="1.8"/>
  <line x1="288.9" y1="200" x2="541.1" y2="200" stroke="#ffffff" stroke-width="1.8"/>
  <line x1="400" y1="36" x2="400" y2="364" stroke="#ffffff" stroke-width="3.5" filter="url(#glow)"/>
  <circle cx="400" cy="36" r="5" fill="#ffffff" filter="url(#glow)"/>
  <circle cx="400" cy="364" r="5" fill="#ffffff" filter="url(#glow)"/>
  <text x="182" y="208" font-family="system-ui,sans-serif" font-size="38" font-weight="700" fill="#ffffff" opacity="0.18" text-anchor="middle" dominant-baseline="middle">A</text>
  <text x="618" y="208" font-family="system-ui,sans-serif" font-size="38" font-weight="700" fill="#ffffff" opacity="0.18" text-anchor="middle" dominant-baseline="middle">B</text>
  <rect x="690" y="8" width="100" height="26" fill="#10b981" rx="6" opacity="0.92"/>
  <text x="740" y="25" font-family="system-ui,sans-serif" font-size="12" font-weight="700" fill="#ffffff" letter-spacing="1.5" text-anchor="middle">PADEL</text>
</svg>
