<?xml version="1.0" encoding="UTF-8"?>
<svg id="Layer_1" xmlns="http://www.w3.org/2000/svg" xmlns:xlink="http://www.w3.org/1999/xlink" version="1.1" viewBox="0 0 800 400">
  <!-- Generator: Adobe Illustrator 30.3.0, SVG Export Plug-In . SVG Version: 2.1.3 Build 182)  -->
  <defs>
    <style>
      .st0 {
        opacity: .4;
      }

      .st0, .st1, .st2 {
        isolation: isolate;
      }

      .st3 {
        fill: url(#linear-gradient2);
      }

      .st4 {
        fill: url(#linear-gradient1);
      }

      .st5 {
        fill: url(#linear-gradient);
      }

      .st6 {
        fill: #0f172a;
      }

      .st1 {
        fill: #6b7280;
        opacity: .45;
      }

      .st7 {
        stroke-width: 3.5px;
      }

      .st7, .st8, .st9 {
        fill: none;
        stroke: #fff;
      }

      .st8 {
        stroke-width: 2.5px;
      }

      .st10 {
        fill: #fff;
      }

      .st2 {
        fill: #0a7a57;
        opacity: .6;
      }

      .st9 {
        stroke-width: 1.8px;
      }
    </style>
    <linearGradient id="linear-gradient" x1=".5" y1="400" x2=".5" y2="399" gradientTransform="translate(36 131236) scale(728 -328)" gradientUnits="userSpaceOnUse">
      <stop offset="0" stop-color="#0d9469"/>
      <stop offset="1" stop-color="#0a7a57"/>
    </linearGradient>
    <linearGradient id="linear-gradient1" x1="0" y1="399.5" x2="1" y2="399.5" gradientTransform="translate(36 131236) scale(9 -328)" gradientUnits="userSpaceOnUse">
      <stop offset="0" stop-color="#7dd3fc" stop-opacity=".8"/>
      <stop offset="1" stop-color="#7dd3fc" stop-opacity=".3"/>
    </linearGradient>
    <linearGradient id="linear-gradient2" x1="0" y1="399.5" x2="1" y2="399.5" gradientTransform="translate(755 131236) scale(9 -328)" gradientUnits="userSpaceOnUse">
      <stop offset="0" stop-color="#7dd3fc" stop-opacity=".3"/>
      <stop offset="1" stop-color="#7dd3fc" stop-opacity=".8"/>
    </linearGradient>
  </defs>
  <rect class="st6" width="800" height="400" rx="12" ry="12"/>
  <rect class="st0" x="40" y="40" width="724" height="324" rx="4" ry="4"/>
  <rect class="st5" x="36" y="36" width="728" height="328" rx="4" ry="4"/>
  <rect class="st2" x="145.44" y="36" width="509.51" height="328"/>
  <rect class="st4" x="36" y="36" width="9" height="328" rx="4" ry="4"/>
  <rect class="st3" x="755" y="36" width="9" height="328"/>
  <rect class="st1" x="36" y="36" width="728" height="9" rx="4" ry="4"/>
  <rect class="st1" x="36" y="355" width="728" height="9"/>
  <rect class="st8" x="36" y="36" width="728" height="328" rx="4" ry="4"/>
  <line class="st9" x1="145" y1="36" x2="145" y2="364"/>
  <line class="st9" x1="655" y1="36" x2="655" y2="364"/>
  <line class="st7" x1="400" y1="36" x2="400" y2="364"/>
  <circle class="st10" cx="400" cy="36" r="5"/>
  <circle class="st10" cx="400" cy="364" r="5"/>
  <line class="st9" x1="145.06" y1="200" x2="654.95" y2="200"/>
</svg>