<svg xmlns="http://www.w3.org/2000/svg" width="100" height="100" viewBox="0 0 100 100">
  <circle cx="50" cy="50" r="48" fill="#065f46" stroke="#10b981" stroke-width="2"/>
  <rect x="16" y="22" width="68" height="60" fill="#ffffff" rx="7"/>
  <rect x="16" y="22" width="68" height="20" fill="#10b981" rx="7 7 0 0"/>
  <text x="50" y="36" font-family="system-ui" font-size="9" font-weight="700" fill="#ffffff" letter-spacing="1.2" text-anchor="middle">SCHEMA</text>
  <rect x="30" y="16" width="8" height="14" fill="#10b981" rx="4"/>
  <rect x="62" y="16" width="8" height="14" fill="#10b981" rx="4"/>
  <line x1="22" y1="57" x2="78" y2="57" stroke="#6b7280" stroke-width="0.8"/>
  <line x1="22" y1="67" x2="78" y2="67" stroke="#6b7280" stroke-width="0.8"/>
  <line x1="22" y1="77" x2="78" y2="77" stroke="#6b7280" stroke-width="0.8"/>
  <circle cx="30" cy="52" r="4" fill="#10b981"/>
  <circle cx="50" cy="52" r="4" fill="#6b7280"/>
  <circle cx="70" cy="52" r="4" fill="#6b7280"/>
  <circle cx="30" cy="62" r="4" fill="#10b981"/>
  <circle cx="50" cy="62" r="4" fill="#10b981"/>
  <circle cx="70" cy="62" r="4" fill="#6b7280"/>
  <circle cx="30" cy="72" r="4" fill="#6b7280"/>
  <circle cx="50" cy="72" r="4" fill="#6b7280"/>
  <circle cx="70" cy="72" r="4" fill="#6b7280"/>
</svg>
