<?xml version="1.0" encoding="UTF-8"?>
<svg id="Layer_1" xmlns="http://www.w3.org/2000/svg" version="1.1" viewBox="0 0 200 60">
  <!-- Generator: Adobe Illustrator 30.3.0, SVG Export Plug-In . SVG Version: 2.1.3 Build 182)  -->
  <defs>
    <style>
      .st0 {
        fill: none;
      }

      .st0, .st1 {
        stroke: #fff;
        stroke-miterlimit: 10;
      }

      .st2 {
        fill: #fff;
      }

      .st3 {
        font-family: Montserrat-ExtraBold, Montserrat;
        font-size: 20.24px;
        font-weight: 700;
      }

      .st3, .st1, .st4 {
        fill: #9fc843;
      }
    </style>
  </defs>
  <g>
    <path class="st4" d="M12.27,25.65c0-.71.6-1.28,2.28-1.28,1.23,0,2.57.37,3.92,1.09l1.23-2.97c-1.39-.81-3.3-1.23-5.13-1.23-4.21,0-6.27,2.06-6.27,4.59,0,5.26,8.05,3.62,8.05,5.86,0,.69-.65,1.15-2.3,1.15s-3.42-.57-4.67-1.39l-1.32,2.95c1.33.93,3.64,1.56,5.96,1.56,4.21,0,6.27-2.1,6.27-4.57,0-5.22-8.02-3.6-8.02-5.76Z"/>
    <path class="st4" d="M38.54,21.55h-3.29l-4.85,8.17-4.97-8.17h-3.3v14.15h3.7v-7.3l3.62,5.9h1.78l3.64-6.1.04,7.5h3.68l-.04-14.15Z"/>
    <path class="st4" d="M50.61,23.15l-1.82,4.54.93,2.31h-1.86l-1.18,2.95h4.21l1.11,2.75h4.17l-5.56-12.55Z"/>
    <path class="st4" d="M60.51,25.65c0-.71.6-1.28,2.28-1.28,1.23,0,2.57.37,3.92,1.09l1.23-2.97c-1.4-.81-3.3-1.23-5.13-1.23-4.21,0-6.27,2.06-6.27,4.59,0,5.26,8.05,3.62,8.05,5.86,0,.69-.65,1.15-2.3,1.15s-3.42-.57-4.67-1.39l-1.32,2.95c1.33.93,3.64,1.56,5.96,1.56,4.21,0,6.27-2.1,6.27-4.57,0-5.22-8.02-3.6-8.02-5.76Z"/>
    <path class="st4" d="M79.83,21.55v5.32h-5.46v-5.32h-4v14.15h4v-5.52h5.46v5.52h4v-14.15h-4Z"/>
  </g>
  <g>
    <path class="st4" d="M75.86,51.53c-10.41,2.9-24.89-1.3-35.13-5.78l-15.09,7.42-3.16-5.86,13.97-6.93,2.6-1.78c5.09,3.21,10.36,5.77,15.96,7.87,9.6,3.61,18.87,5.71,28.34,1.01-2.03,2.13-4.65,3.25-7.48,4.04Z"/>
    <path class="st4" d="M74.08,7.51c-9.5-3.34-17.77,4.44-22.74,12.25-3.21,5.04-5.42,10.27-7.54,15.94h-4.08c3.55-10.05,10.35-22.78,19.13-28.57,4.75-3.13,10.35-3.79,15.71-1.64,6.94,2.78,12.28,8.87,13.98,16.25-1.83-3.95-4.13-7.43-7.5-10.27-2.01-1.81-4.4-3.08-6.96-3.96Z"/>
  </g>
  <g>
    <circle class="st1" cx="101.73" cy="28.93" r="7.75"/>
    <path class="st0" d="M97.65,22.34c5.15,1.99,6.21,3.44,5.99,4.47-.22,1.08-1.84,1.69-3.32,2.43-.22.1-.44.22-.65.34-.8.45-1.48.95-1.78,1.64-.8,1.84,1.66,3.81,4.51,5.42"/>
    <path class="st2" d="M101.65,21.68c-1.93-.54-3.92-.65-5.92-.69.99-.11,2-.3,3.02-.35,1.02-.05,2.04-.03,3.07.06l-.17.99h0Z"/>
    <path class="st2" d="M104.13,36.8c-3.64.86-7.43.96-11.04.32,3.66.31,7.35-.14,10.77-1.28l.27.96h0Z"/>
  </g>
  <text class="st3" transform="translate(115.08 35.69)"><tspan x="0" y="0">BOARD</tspan></text>
</svg>